# File created by Blade
# Date/Time:  Tue Jan 27 18:05:41 2015
# Frame Rate: 120.000 fps
#------------------------------------------------------
:FULLY-SPECIFIED
:DEGREES
2630
root -1.415153 31.895925 -6.534604 6.592984 20.755909 4.746281
Spine -7.633607 -5.179652 -4.048575
Head -4.997592 -37.591012 -0.793256
LeftShoulder -7.643766 14.432389 8.585628
LeftArm 26.122819 44.738996 -69.117507
LeftForeArm -3.709157 -0.000000 16.197148
LeftHand -10.834832 0.000000 -6.142397
LeftHandThumb1 -26.253704 0.000000 33.147579
RightShoulder -3.337061 27.190787 -40.211964
RightArm 73.453845 48.355102 101.193871
RightForeArm 26.707975 -0.000000 96.075107
RightHand -6.846750 -0.000000 10.678289
RightHandThumb1 -24.326973 -0.000000 -32.862282
LeftUpLeg -2.977118 -8.460520 -1.000254
LeftLeg 0.455166 -0.000000 -0.000000
LeftFoot -13.367953 11.791967 -23.646192
LeftToeBase 8.589229 -0.000000 -0.000000
RightUpLeg 3.477233 -11.824398 -3.819384
RightLeg -3.472518 -0.000000 0.000000
RightFoot -17.328433 -19.445014 11.650191
RightToeBase 5.383050 -0.000000 -0.000000
2631
root -1.412660 31.895736 -6.528870 6.639302 20.895565 4.763445
Spine -7.693526 -5.191726 -4.058536
Head -4.947575 -37.575038 -0.830200
LeftShoulder -7.573324 14.361623 8.581911
LeftArm 26.013842 44.700218 -69.244318
LeftForeArm -3.640286 -0.000000 16.200046
LeftHand -10.814373 -0.000000 -6.276288
LeftHandThumb1 -26.253704 0.000000 33.147579
RightShoulder -3.483569 27.248892 -40.285005
RightArm 75.229588 48.675685 104.159287
RightForeArm 27.277091 -0.000000 96.418308
RightHand -6.524405 -0.000000 10.723126
RightHandThumb1 -24.326973 -0.000000 -32.862282
LeftUpLeg -3.014195 -8.548513 -0.996487
LeftLeg 0.443987 -0.000000 -0.000000
LeftFoot -13.345786 11.749526 -23.645484
LeftToeBase 8.619638 -0.000000 -0.000000
RightUpLeg 3.473188 -11.865334 -3.813162
RightLeg -3.471631 -0.000000 0.000000
RightFoot -17.378121 -19.538106 11.695178
RightToeBase 5.406535 -0.000000 -0.000000
2632
root -1.410844 31.896317 -6.520734 6.664328 21.041024 4.776998
Spine -7.740183 -5.232284 -4.076829
Head -4.812134 -37.546459 -0.922350
LeftShoulder -7.535855 14.345493 8.567513
LeftArm 26.009726 44.745760 -69.245489
LeftForeArm -3.584316 -0.000000 16.230392
LeftHand -10.812745 -0.000000 -6.261237
LeftHandThumb1 -26.253704 0.000000 33.147579
RightShoulder -3.597323 27.341605 -40.319568
RightArm 76.955466 48.976029 107.081566
RightForeArm 27.961722 -0.000000 96.742784
RightHand -5.970190 0.000000 10.649576
RightHandThumb1 -24.326973 -0.000000 -32.862282
LeftUpLeg -3.021350 -8.625125 -0.990816
LeftLeg 0.418928 -0.000000 -0.000000
LeftFoot -13.286251 11.702448 -23.611563
LeftToeBase 8.557320 -0.000000 -0.000000
RightUpLeg 3.497976 -11.949945 -3.807959
RightLeg -3.480361 -0.000000 0.000000
RightFoot -17.396753 -19.598679 11.722535
RightToeBase 5.407004 -0.000000 -0.000000
2633
root -1.407554 31.896806 -6.512113 6.688866 21.187979 4.787704
Spine -7.792105 -5.301769 -4.077069
Head -4.702000 -37.459450 -1.026152
LeftShoulder -7.529402 14.341856 8.533823
LeftArm 26.011822 44.827825 -69.217840
LeftForeArm -3.615754 -0.000000 16.295746
LeftHand -10.768699 -0.000000 -6.250839
LeftHandThumb1 -26.253704 0.000000 33.147579
RightShoulder -3.717636 27.421209 -40.361789
RightArm 78.785157 49.174116 110.113958
RightForeArm 28.613622 -0.000000 97.009397
RightHand -5.498422 -0.000000 10.684890
RightHandThumb1 -24.326973 -0.000000 -32.862282
LeftUpLeg -3.032275 -8.713769 -0.984092
LeftLeg 0.403156 -0.000000 -0.000000
LeftFoot -13.249174 11.653900 -23.600379
LeftToeBase 8.567854 -0.000000 -0.000000
RightUpLeg 3.530315 -12.054955 -3.805003
RightLeg -3.499366 -0.000000 0.000000
RightFoot -17.412499 -19.624312 11.772887
RightToeBase 5.411155 -0.000000 -0.000000
2634
root -1.406273 31.897308 -6.505494 6.714345 21.323804 4.796321
Spine -7.836061 -5.354244 -4.091518
Head -4.598034 -37.393066 -1.066427
LeftShoulder -7.502073 14.323813 8.520194
LeftArm 26.004010 44.900172 -69.213799
LeftForeArm -3.680386 -0.000000 16.339787
LeftHand -10.717495 -0.000000 -6.263284
LeftHandThumb1 -26.253704 0.000000 33.147579
RightShoulder -3.848022 27.560557 -40.370836
RightArm 80.503223 49.338085 113.014529
RightForeArm 29.411571 -0.000000 97.258768
RightHand -5.017661 -0.000000 10.687496
RightHandThumb1 -24.326973 -0.000000 -32.862282
LeftUpLeg -3.052593 -8.781932 -0.973070
LeftLeg 0.395564 -0.000000 -0.000000
LeftFoot -13.204760 11.597624 -23.578059
LeftToeBase 8.547760 -0.000000 -0.000000
RightUpLeg 3.544940 -12.128363 -3.795108
RightLeg -3.498575 -0.000000 0.000000
RightFoot -17.433718 -19.668109 11.799170
RightToeBase 5.439021 -0.000000 -0.000000
2635
root -1.403635 31.897696 -6.497003 6.734692 21.437589 4.800492
Spine -7.901916 -5.422712 -4.089719
Head -4.476692 -37.276477 -1.143297
LeftShoulder -7.482447 14.343039 8.495135
LeftArm 25.976171 44.932517 -69.230783
LeftForeArm -3.692503 -0.000000 16.388801
LeftHand -10.648188 -0.000000 -6.290039
LeftHandThumb1 -26.253704 0.000000 33.147579
RightShoulder -3.918308 27.586990 -40.350953
RightArm 82.310190 49.417967 115.927648
RightForeArm 30.213606 -0.000000 97.494338
RightHand -4.640838 -0.000000 10.365017
RightHandThumb1 -24.326973 -0.000000 -32.862282
LeftUpLeg -3.066433 -8.816034 -0.962630
LeftLeg 0.395401 -0.000000 -0.000000
LeftFoot -13.166206 11.522059 -23.560132
LeftToeBase 8.544520 -0.000000 -0.000000
RightUpLeg 3.564318 -12.220819 -3.788365
RightLeg -3.498941 -0.000000 0.000000
RightFoot -17.446067 -19.684827 11.813601
RightToeBase 5.438553 -0.000000 -0.000000
2636
root -1.400966 31.898813 -6.489515 6.759690 21.553339 4.814860
Spine -7.956432 -5.482158 -4.107382
Head -4.343495 -37.114119 -1.256836
LeftShoulder -7.452547 14.347123 8.481678
LeftArm 25.931349 44.953747 -69.270648
LeftForeArm -3.684000 -0.000000 16.436467
LeftHand -10.663994 -0.000000 -6.273219
LeftHandThumb1 -26.253704 0.000000 33.147579
RightShoulder -4.008831 27.713893 -40.313417
RightArm 83.892819 49.510290 118.589170
RightForeArm 31.142580 -0.000000 97.707649
RightHand -4.130246 -0.000000 10.104873
RightHandThumb1 -24.326973 -0.000000 -32.862282
LeftUpLeg -3.082226 -8.888125 -0.960384
LeftLeg 0.392491 -0.000000 -0.000000
LeftFoot -13.119474 11.484781 -23.553954
LeftToeBase 8.528005 -0.000000 -0.000000
RightUpLeg 3.575029 -12.273808 -3.786612
RightLeg -3.491588 -0.000000 0.000000
RightFoot -17.468617 -19.756889 11.835630
RightToeBase 5.402109 -0.000000 -0.000000
2637
root -1.398844 31.898615 -6.482603 6.781448 21.675651 4.819158
Spine -8.019102 -5.564468 -4.101537
Head -4.186600 -36.970394 -1.364351
LeftShoulder -7.421483 14.355162 8.477152
LeftArm 25.875328 44.978689 -69.326079
LeftForeArm -3.656640 0.000000 16.482482
LeftHand -10.679217 -0.000000 -6.351662
LeftHandThumb1 -26.253704 0.000000 33.147579
RightShoulder -4.071673 27.762273 -40.268603
RightArm 85.577354 49.500971 121.295663
RightForeArm 32.033376 0.000000 97.912770
RightHand -3.764460 -0.000000 9.805013
RightHandThumb1 -24.326973 -0.000000 -32.862282
LeftUpLeg -3.103772 -8.967836 -0.947569
LeftLeg 0.398479 -0.000000 -0.000000
LeftFoot -13.130438 11.435718 -23.595377
LeftToeBase 8.629880 -0.000000 -0.000000
RightUpLeg 3.587296 -12.322063 -3.774370
RightLeg -3.485190 -0.000000 0.000000
RightFoot -17.510540 -19.815906 11.892348
RightToeBase 5.434420 -0.000000 -0.000000
2638
root -1.394632 31.898892 -6.474754 6.794369 21.773103 4.835220
Spine -8.085240 -5.637211 -4.111073
Head -4.001665 -36.826763 -1.469558
LeftShoulder -7.382849 14.382772 8.486791
LeftArm 25.832201 45.009882 -69.387759
LeftForeArm -3.614847 -0.000000 16.507298
LeftHand -10.692681 -0.000000 -6.453386
LeftHandThumb1 -26.253704 0.000000 33.147579
RightShoulder -4.085420 27.859098 -40.176239
RightArm 87.077166 49.534726 123.728162
RightForeArm 32.965893 -0.000000 98.101247
RightHand -3.565006 -0.000000 9.274504
RightHandThumb1 -24.326973 -0.000000 -32.862282
LeftUpLeg -3.109219 -9.011728 -0.955146
LeftLeg 0.412381 -0.000000 -0.000000
LeftFoot -13.106815 11.383585 -23.578622
LeftToeBase 8.583830 -0.000000 -0.000000
RightUpLeg 3.609945 -12.344748 -3.782934
RightLeg -3.472549 -0.000000 0.000000
RightFoot -17.544836 -19.881316 11.920176
RightToeBase 5.396725 -0.000000 -0.000000
2639
root -1.391290 31.898826 -6.468021 6.807956 21.863741 4.850380
Spine -8.136415 -5.693929 -4.122408
Head -3.892311 -36.667883 -1.533570
LeftShoulder -7.352776 14.386497 8.499517
LeftArm 25.799375 45.072326 -69.429314
LeftForeArm -3.648713 -0.000000 16.526021
LeftHand -10.658031 -0.000000 -6.574684
LeftHandThumb1 -26.253704 0.000000 33.147579
RightShoulder -4.116862 27.961990 -40.095430
RightArm 88.465536 49.588710 125.995234
RightForeArm 33.947093 -0.000000 98.261668
RightHand -3.198557 -0.000000 8.713600
RightHandThumb1 -24.326973 -0.000000 -32.862282
LeftUpLeg -3.114893 -9.065530 -0.960629
LeftLeg 0.414326 -0.000000 -0.000000
LeftFoot -13.074961 11.356653 -23.538024
LeftToeBase 8.557164 -0.000000 -0.000000
RightUpLeg 3.617936 -12.346535 -3.788027
RightLeg -3.441167 -0.000000 0.000000
RightFoot -17.597279 -19.964920 11.951375
RightToeBase 5.434445 -0.000000 -0.000000
2640
root -1.387319 31.899401 -6.461205 6.810080 21.936944 4.862615
Spine -8.177209 -5.719141 -4.128099
Head -3.764871 -36.516620 -1.627252
LeftShoulder -7.321907 14.386123 8.517997
LeftArm 25.800890 45.193271 -69.433758
LeftForeArm -3.705643 -0.000000 16.547905
LeftHand -10.637073 -0.000000 -6.587696
LeftHandThumb1 -26.253704 0.000000 33.147579
RightShoulder -4.169551 28.044151 -40.024969
RightArm 89.823563 49.597704 128.195684
RightForeArm 34.797268 -0.000000 98.412618
RightHand -2.981716 -0.000000 8.248083
RightHandThumb1 -24.326973 -0.000000 -32.862282
LeftUpLeg -3.112682 -9.105247 -0.968073
LeftLeg 0.431923 -0.000000 -0.000000
LeftFoot -13.080529 11.309712 -23.570733
LeftToeBase 8.578983 -0.000000 -0.000000
RightUpLeg 3.639891 -12.357002 -3.796853
RightLeg -3.420995 -0.000000 0.000000
RightFoot -17.630160 -20.007156 11.988436
RightToeBase 5.422750 -0.000000 -0.000000
2641
root -1.383666 31.899669 -6.453609 6.805883 21.994443 4.874849
Spine -8.211251 -5.736492 -4.135737
Head -3.635884 -36.361798 -1.740091
LeftShoulder -7.293652 14.376595 8.550376
LeftArm 25.772047 45.293532 -69.476285
LeftForeArm -3.739185 -0.000000 16.570179
LeftHand -10.644508 -0.000000 -6.602324
LeftHandThumb1 -26.253704 0.000000 33.147579
RightShoulder -4.226875 28.220105 -39.937461
RightArm 90.964870 49.646066 130.116493
RightForeArm 35.768414 -0.000000 98.500735
RightHand -2.684981 -0.000000 7.916508
RightHandThumb1 -24.326973 -0.000000 -32.862282
LeftUpLeg -3.094956 -9.139871 -0.977667
LeftLeg 0.430427 -0.000000 -0.000000
LeftFoot -13.051728 11.302850 -23.540806
LeftToeBase 8.564400 -0.000000 -0.000000
RightUpLeg 3.670821 -12.373670 -3.808358
RightLeg -3.410440 -0.000000 0.000000
RightFoot -17.641728 -20.051767 12.002304
RightToeBase 5.373933 -0.000000 -0.000000
